<svg xmlns="http://www.w3.org/2000/svg" viewBox="0 0 350 220" width="100%" height="100%">
  <!-- Left Shape: Navy Blue Stylized Delta / Inverted V -->
  <path 
    d="M 30,25 L 165,25 L 142,65 L 105,65 L 175,185 L 135,210 L 30,25 Z" 
    fill="#0a2540" 
  />

  <!-- Right Shape: Cyan AF Styled Wave & Top Arrow -->
  <path 
    d="M 98,155 L 175,25 L 295,25 L 295,12 L 340,33 L 295,54 L 295,40 L 195,40 L 150,120 
       C 170,105 200,90 235,90 
       C 285,90 310,115 325,80 
       C 305,123 270,130 235,121 
       C 205,113 185,117 171,129 
       C 200,173 240,180 267,160 
       C 273,155 277,147 279,137 
       C 281,127 285,135 283,143 
       C 277,170 245,190 205,180 
       C 165,170 135,135 98,155 Z" 
    fill="#00b4d8" 
  />
</svg>
